<?xml version="1.0" standalone="no"?><!DOCTYPE svg PUBLIC "-//W3C//DTD SVG 1.1//EN" "http://www.w3.org/Graphics/SVG/1.1/DTD/svg11.dtd"><svg t="1535512029179" class="icon" style="" viewBox="0 0 1158 1024" version="1.1" xmlns="http://www.w3.org/2000/svg" p-id="2499" xmlns:xlink="http://www.w3.org/1999/xlink" width="36.1875" height="32"><defs><style type="text/css"></style></defs><path d="M633.712038 838.465517c6.397741 0 6.397741 0 6.397741-6.397741 25.590963-19.193222 51.181926-38.386445 63.977408-51.181926 19.193222-12.795482 76.77289-63.977408 89.568371-76.77289 31.988704-25.590963 57.579667-51.181926 76.77289-70.375149C979.190041 531.373959 1023.974227 448.203328 1030.371968 333.043994c12.795482-236.71641-249.511891-326.284781-403.057671-134.352557l-12.795481 12.795482c-6.397741 6.397741-6.397741 12.795482-12.795482 12.795481l-38.386445 38.386445-38.386444-38.386445-12.795482-12.795481c-6.397741-6.397741-6.397741-12.795482-12.795482-12.795482-147.148038-185.534483-409.455411-95.966112-403.05767 127.954816 6.397741 121.557075 57.579667 211.125446 172.739002 319.88704 19.193222 19.193222 44.784186 38.386445 70.375148 63.977408 6.397741 6.397741 63.977408 51.181926 76.77289 63.977408 12.795482 12.795482 31.988704 25.590963 57.579667 44.784185 6.397741 0 6.397741 6.397741 12.795482 12.795482 19.193222 12.795482 44.784186 31.988704 63.977408 44.784186 44.784186-6.397741 63.977408-25.590963 83.17063-38.386445z m499.023782-492.626042c-6.397741 147.148038-70.375149 249.511891-191.932224 371.068967-25.590963 19.193222-44.784186 44.784186-83.17063 70.375148-12.795482 12.795482-70.375149 57.579667-89.568371 76.77289-12.795482 12.795482-38.386445 31.988704-63.977408 51.181926-6.397741 0-6.397741 0-6.397741 6.397741-19.193222 12.795482-38.386445 31.988704-63.977408 44.784186-12.795482 6.397741-25.590963 19.193222-25.590963 19.193222l-25.590963 19.193223-31.988704-19.193223c-6.397741-6.397741-19.193222-12.795482-31.988704-19.193222-25.590963-12.795482-44.784186-31.988704-70.375149-44.784186-6.397741-6.397741-12.795482-6.397741-12.795482-12.795481-25.590963-19.193222-51.181926-38.386445-70.375148-51.181927-19.193222-12.795482-70.375149-63.977408-76.77289-63.977408-31.988704-25.590963-51.181926-44.784186-76.772889-63.977408C70.710848 601.749107 6.73344 492.987514 0.335699 339.441735c-12.795482-319.88704 345.478003-454.239597 563.00119-223.920928 223.920928-230.318669 582.194413-95.966112 569.398931 230.318668z" fill="#F9BAC5" p-id="2500"></path></svg>