<?xml version="1.0" standalone="no"?><!DOCTYPE svg PUBLIC "-//W3C//DTD SVG 1.1//EN" "http://www.w3.org/Graphics/SVG/1.1/DTD/svg11.dtd"><svg t="1531304163760" class="icon" style="" viewBox="0 0 1024 1024" version="1.1" xmlns="http://www.w3.org/2000/svg" p-id="5600" data-spm-anchor-id="a313x.7781069.0.i9" xmlns:xlink="http://www.w3.org/1999/xlink" width="200" height="200"><defs><style type="text/css"></style></defs><path d="M960.6912 289.35168c11.1104-7.36256 19.24096-35.07712 19.24096-52.3264 0-46.46912-38.016-73.41568-80.84992-83.67616 10.9312-15.2576 15.47776-26.94144 15.47776-46.65856C914.56 40.00256 863.29856 0 756.57216 0H438.17472c-35.03104 0-71.66976 8.09472-94.7712 17.85856-22.65088 9.63072-41.10848 20.21888-44.34432 20.21888-7.22944 0-15.20128-6.43072-25.24672-13.82912C259.60448 13.75744 243.54304 1.28 224.05632 0.64c-6.656-0.15872-17.87904-0.26112-29.91104-0.26112-23.58784 0-55.07072 0.26112-55.07072 0.26112-63.232 0-94.7456 38.87616-99.51232 103.07072L0.08192 520.39168c-0.09728 70.05184 42.53184 119.26016 101.30432 119.26016h152.23296c81.23392 0 160.7424 81.47968 173.73696 106.24 16.384 38.27712 29.53216 79.77984 29.53216 170.84928 0 27.22816 2.72384 107.25888 85.78048 107.25888 24.66816 0 60.21632-10.35776 89.80992-56.57088 49.14176-76.79488 56.53504-220.672 17.34144-327.36256h228.89472c86.3232 0 143.50336-43.81184 144.9472-102.91712 0-35.77344-21.30944-76.28288-35.77856-84.48512 23.84896-15.70816 36.03968-42.752 36.03968-78.19776 0.06144-42.40896-42.27072-79.77472-63.232-85.11488zM243.25632 54.88128c4.608 3.39456 11.06944 8.064 17.98144 12.9024V597.6576c-2.52416-0.08704-5.05344-0.4096-7.61344-0.4096l-149.48864 0.45056v0.22016c-34.81088 0-60.88704-35.51232-60.88704-67.93216l39.48544-433.16224c5.53984-31.0784 27.29472-54.20544 51.82976-54.20544 0.45568 0 68.85376-0.60416 87.93088 0 3.84 0.45056 14.42304 7.59296 20.7616 12.2624z m737.5616 321.9712c0.71168 18.83136-5.30944 36.03968-18.56 45.12256-8.80128 6.05696-25.6512 8.32-25.6512 8.32l0.32256 38.04672s11.32032 0.39936 25.29792 12.02176c16.67072 13.81888 18.048 45.13792 17.88928 45.6192l0.34304 11.49952c0 36.70016-50.00704 57.05728-99.75296 59.77088l-292.21888-0.06144 8.77056 35.67104c50.89792 103.11168 41.33888 240.77824 0.4096 304.67072-13.81376 21.64224-41.18016 40.62208-58.38848 40.62208-19.45088 0-37.71392-6.69184-37.71392-56.448 0-100.16256-9.41056-145.82784-28.19072-189.50656-17.28512-33.024-85.72416-104.54528-168.6272-127.5136v-514.56c9.63072-5.2224 37.53472-20.97152 54.9376-29.37856 18.46272-8.92928 50.49344-18.10944 66.26304-18.10944h329.71776c83.60448 0 115.7888 28.53888 115.7888 68.16256 0.03584 22.65088-5.7856 36.82816-22.01088 40.44288l0.67584 36.83328h-0.1024c39.8336 0 87.12192 14.46912 87.12192 50.45248-0.03072 33.59744-17.152 38.7584-21.79072 40.51456l-0.5376 38.66112h5.80096c22.54848-0.00512 59.33568 35.3536 60.20608 59.14624z" fill="#F9BAC5" p-id="5601" data-spm-anchor-id="a313x.7781069.0.i10" class=""></path></svg>