<?xml version="1.0" standalone="no"?><!DOCTYPE svg PUBLIC "-//W3C//DTD SVG 1.1//EN" "http://www.w3.org/Graphics/SVG/1.1/DTD/svg11.dtd"><svg t="1531559552619" class="icon" style="" viewBox="0 0 1024 1024" version="1.1" xmlns="http://www.w3.org/2000/svg" p-id="9951" xmlns:xlink="http://www.w3.org/1999/xlink" width="200" height="200"><defs><style type="text/css"></style></defs><path d="M146.336 749.728v109.728q0 7.424-5.44 12.864t-12.864 5.44H18.304q-7.424 0-12.864-5.44t-5.44-12.864v-109.728q0-7.424 5.44-12.864t12.864-5.44h109.728q7.424 0 12.864 5.44t5.44 12.864z m0-219.456V640q0 7.424-5.44 12.864t-12.864 5.44H18.304q-7.424 0-12.864-5.44T0 640v-109.728q0-7.424 5.44-12.864t12.864-5.44h109.728q7.424 0 12.864 5.44t5.44 12.864z m0-219.424v109.728q0 7.424-5.44 12.864t-12.864 5.44H18.304q-7.424 0-12.864-5.44t-5.44-12.864V310.848q0-7.424 5.44-12.864t12.864-5.44h109.728q7.424 0 12.864 5.44t5.44 12.864zM1024.064 749.728v109.728q0 7.424-5.44 12.864t-12.864 5.44h-768q-7.424 0-12.864-5.44t-5.44-12.864v-109.728q0-7.424 5.44-12.864t12.864-5.44h768q7.424 0 12.864 5.44t5.44 12.864zM146.336 91.424v109.728q0 7.424-5.44 12.864t-12.864 5.44H18.304q-7.424 0-12.864-5.44t-5.44-12.864V91.424q0-7.424 5.44-12.864t12.864-5.44h109.728q7.424 0 12.864 5.44t5.44 12.864zM1024.064 530.272V640q0 7.424-5.44 12.864t-12.864 5.44h-768q-7.424 0-12.864-5.44T219.456 640v-109.728q0-7.424 5.44-12.864t12.864-5.44h768q7.424 0 12.864 5.44t5.44 12.864z m0-219.424v109.728q0 7.424-5.44 12.864t-12.864 5.44h-768q-7.424 0-12.864-5.44t-5.44-12.864V310.848q0-7.424 5.44-12.864t12.864-5.44h768q7.424 0 12.864 5.44t5.44 12.864z m0-219.424v109.728q0 7.424-5.44 12.864t-12.864 5.44h-768q-7.424 0-12.864-5.44t-5.44-12.864V91.424q0-7.424 5.44-12.864t12.864-5.44h768q7.424 0 12.864 5.44t5.44 12.864z" fill="#F9BAC5" p-id="9952" data-spm-anchor-id="a313x.7781069.0.i1" class="selected"></path></svg>