<?xml version="1.0" standalone="no"?><!DOCTYPE svg PUBLIC "-//W3C//DTD SVG 1.1//EN" "http://www.w3.org/Graphics/SVG/1.1/DTD/svg11.dtd"><svg t="1536639142224" class="icon" style="" viewBox="0 0 1024 1024" version="1.1" xmlns="http://www.w3.org/2000/svg" p-id="7517" xmlns:xlink="http://www.w3.org/1999/xlink" width="200" height="200"><defs><style type="text/css"></style></defs><path d="M994.496 934.208l0.128-0.32-282.176-283.456c55.552-67.328 87.488-150.912 90.112-236.16 5.248-103.744-34.304-210.944-105.6-286.656C636.032 61.632 550.336 17.216 461.952 5.824 444.8 3.392 427.2 2.176 409.728 2.176c-87.488 0-172.736 29.184-240 82.176-78.016 59.712-131.84 149.376-147.776 245.952-15.744 89.984 1.28 186.56 46.784 264.896 31.104 54.4 75.392 101.184 128.064 135.168 48.384 31.424 104 51.968 160.832 59.328 17.024 2.368 34.56 3.584 51.968 3.584 80.704 0 160.512-25.344 225.472-71.424l281.792 283.2 5.184 4.928 0.128-0.128c9.28 7.68 21.056 11.904 33.28 11.904 28.8 0 52.224-23.616 52.224-52.672C1007.808 956.288 1003.008 943.808 994.496 934.208M708.48 547.648c-46.144 94.848-138.944 164.16-242.24 180.992-48.384 8.448-99.328 5.824-146.816-7.552C226.752 695.552 147.456 627.968 107.2 540.16 60.608 442.624 66.432 319.872 122.048 227.264 171.52 141.696 258.752 81.6 355.264 66.56l6.848-1.024c3.584-0.576 7.232-1.152 10.752-1.6 11.904-1.28 24.064-1.856 36.032-1.856 49.28 0 97.984 10.688 140.928 30.912 78.528 36.16 141.12 103.36 171.712 184.448C755.072 363.968 750.208 464.96 708.48 547.648" p-id="7518" data-spm-anchor-id="a313x.7781069.0.i7" class="selected"></path></svg>