<?xml version="1.0" standalone="no"?><!DOCTYPE svg PUBLIC "-//W3C//DTD SVG 1.1//EN" "http://www.w3.org/Graphics/SVG/1.1/DTD/svg11.dtd"><svg t="1531372690223" class="icon" style="" viewBox="0 0 1024 1024" version="1.1" xmlns="http://www.w3.org/2000/svg" p-id="7087" data-spm-anchor-id="a313x.7781069.0.i17" xmlns:xlink="http://www.w3.org/1999/xlink" width="200" height="200"><defs><style type="text/css"></style></defs><path d="M544 959.744c-3.936 0-7.936-0.704-11.712-2.208A32.012 32.012 0 0 1 512 927.744V640.768c-238.56 11.584-392.896 149.28-394.496 150.72-10.176 9.248-25.056 10.976-37.056 4.288-12-6.656-18.4-20.224-15.936-33.728 0.832-4.512 20.896-111.296 88.896-219.2C245.28 397.056 380.32 320.032 544 320.032c17.696 0 32 14.336 32 32s-14.304 32-32 32c-238.592 0-346.784 188.384-390.56 303.136C233.152 638.336 369.184 576 544 576c17.696 0 32 14.304 32 32v238.464l308.384-330.912L576 181.312V224c0 17.664-14.304 32-32 32-17.664 0-32-14.336-32-32V99.424a31.96 31.96 0 0 1 20.352-29.792c12.256-4.832 26.208-1.6 35.2 8.096l384 416.224c11.328 12.32 11.296 31.296-0.128 43.52l-384 412.096A32.021 32.021 0 0 1 544 959.744z" p-id="7088" data-spm-anchor-id="a313x.7781069.0.i18" class="selected" fill="#F9BAC5"></path></svg>