<?xml version="1.0" standalone="no"?><!DOCTYPE svg PUBLIC "-//W3C//DTD SVG 1.1//EN" "http://www.w3.org/Graphics/SVG/1.1/DTD/svg11.dtd"><svg t="1538558750412" class="icon" style="" viewBox="0 0 1024 1024" version="1.1" xmlns="http://www.w3.org/2000/svg" p-id="7887" xmlns:xlink="http://www.w3.org/1999/xlink" width="32" height="32"><defs><style type="text/css"></style></defs><path d="M703.323 70.516c-58.604-25.532-123.266-39.763-191.307-39.763-46.37 0-91.21 6.741-133.602 18.975l316.604 388.756 8.306-367.967z" p-id="7888" fill="#2c2c2c"></path><path d="M335.107 64.541c-59.502 23.435-115.31 59.086-163.361 107.155-32.822 32.805-59.753 69.222-81.073 107.903l498.806 50.98-254.371-266.038z" p-id="7889" fill="#2c2c2c"></path><path d="M70.533 320.71c-25.549 58.604-39.763 123.266-39.763 191.274 0 46.37 6.707 91.159 18.975 133.602l388.789-316.654-368.001-8.223z" p-id="7890" fill="#2c2c2c"></path><path d="M64.575 688.927c23.385 59.453 59.020 115.261 107.155 163.345 32.755 32.805 69.189 59.753 107.871 81.056l50.98-498.789-266.005 254.388z" p-id="7891" fill="#2c2c2c"></path><path d="M320.693 953.484c58.637 25.499 123.266 39.763 191.323 39.763 46.354 0 91.159-6.707 133.585-18.991l-316.604-388.772-8.306 368.001z" p-id="7892" fill="#2c2c2c"></path><path d="M688.943 959.425c59.47-23.435 115.261-59.070 163.361-107.155 32.805-32.755 59.718-69.189 81.023-107.903l-498.756-50.964 254.371 266.021z" p-id="7893" fill="#2c2c2c"></path><path d="M974.239 378.382l-388.756 316.62 367.984 8.289c25.532-58.637 39.763-123.266 39.763-191.307 0-46.37-6.707-91.175-18.991-133.602z" p-id="7894" fill="#2c2c2c"></path><path d="M959.442 335.073c-23.402-59.47-59.020-115.261-107.155-163.395-32.772-32.755-69.222-59.718-107.903-81.006l-50.98 498.756 266.038-254.355z" p-id="7895" fill="#2c2c2c"></path></svg>