<?xml version="1.0" standalone="no"?><!DOCTYPE svg PUBLIC "-//W3C//DTD SVG 1.1//EN" "http://www.w3.org/Graphics/SVG/1.1/DTD/svg11.dtd"><svg t="1538558655289" class="icon" style="" viewBox="0 0 1024 1024" version="1.1" xmlns="http://www.w3.org/2000/svg" p-id="3235" xmlns:xlink="http://www.w3.org/1999/xlink" width="32" height="32"><defs><style type="text/css"></style></defs><path d="M834.168832 433.01888c13.328384 0 24.674304-10.022912 26.566656-23.099392 0.237568-0.9728 0.360448-1.828864 0.360448-2.926592 20.20352-184.64768-148.846592-152.866816-148.846592-152.866816-15.007744 0-27.019264 12.345344-27.019264 27.74016 0 15.147008 12.01152 27.488256 27.019264 27.488256 121.444352-27.246592 94.644224 96.17408 94.644224 96.17408-0.006144 15.271936 12.208128 27.490304 27.275264 27.490304z" fill="#2c2c2c" p-id="3236"></path><path d="M814.47936 110.739456c-58.468352-13.914112-118.562816-1.923072-135.399424 1.355776-1.294336 0.12288-2.525184 1.37216-3.723264 1.613824-0.57344 0.12288-0.929792 0.735232-0.929792 0.735232-16.631808 4.773888-28.760064 20.396032-28.760064 38.856704 0 21.999616 17.528832 40.091648 39.442432 40.091648 0 0 21.250048-2.895872 35.688448-8.63232 14.311424-5.863424 135.340032-4.364288 195.493888 98.275328 32.774144 74.9056 14.399488 125.038592 12.122112 133.093376 0 0-7.806976 19.464192-7.806976 38.627328 0 22.126592 17.528832 36.016128 39.262208 36.016128 18.184192 0 33.431552-2.514944 37.906432-33.757184h0.237568c64.579584-218.70592-78.96064-321.47456-183.533568-346.27584zM753.606656 501.215232c-39.049216-7.704576-20.047872-29.083648-20.047872-29.083648s38.207488-64.043008-7.569408-110.604288c-56.758272-57.665536-194.65216 7.337984-194.65216 7.337984-52.670464 16.613376-38.690816-7.581696-31.246336-48.756736 0-48.510976-16.355328-130.623488-156.649472-82.120704C203.298816 286.744576 82.939904 457.582592 82.939904 457.582592-0.743424 571.099136 10.36288 658.837504 10.36288 658.837504c20.8896 193.687552 223.348736 246.85568 380.811264 259.444736 165.654528 13.207552 389.265408-58.056704 457.04192-204.45184 67.805184-146.634752-55.40864-204.668928-94.609408-212.615168zM403.447808 863.664128c-164.491264 7.81312-297.424896-76.019712-297.424896-187.588608 0-111.691776 132.933632-201.254912 297.424896-208.959488 164.544512-7.704576 297.756672 61.216768 297.756672 172.67712 0.002048 111.556608-133.216256 216.274944-297.756672 223.870976z" fill="#2c2c2c" p-id="3237"></path><path d="M370.60608 540.684288c-165.382144 19.675136-146.290688 177.174528-146.290688 177.174528s-1.683456 49.872896 44.361728 75.27424c96.774144 53.291008 196.421632 21.02272 246.788096-45.062144 50.364416-66.125824 20.830208-226.934784-144.859136-207.386624zM328.886272 761.73312c-30.851072 3.680256-55.764992-14.411776-55.764992-40.68352 0-26.15296 22.120448-53.532672 53.006336-56.81152 35.479552-3.432448 58.591232 17.342464 58.591232 43.618304-0.004096 26.146816-25.032704 50.3296-55.832576 53.876736z m97.523712-84.432896c-10.479616 7.94624-23.32672 6.846464-28.848128-2.689024-5.76512-9.28768-3.600384-24.193024 6.967296-32.022528 12.238848-9.271296 24.999936-6.598656 30.52544 2.70336 5.55008 9.519104 1.591296 23.814144-8.644608 32.008192z" fill="#2c2c2c" p-id="3238"></path></svg>