<?xml version="1.0" standalone="no"?>
<!DOCTYPE svg PUBLIC "-//W3C//DTD SVG 20010904//EN"
 "http://www.w3.org/TR/2001/REC-SVG-20010904/DTD/svg10.dtd">
<svg version="1.0" xmlns="http://www.w3.org/2000/svg"
 width="3348.000000pt" height="1516.800000pt" viewBox="0 0 3348.000000 1516.800000"
 preserveAspectRatio="xMidYMid meet">
<metadata>
Created by potrace 1.13, written by Peter Selinger 2001-2015
</metadata>
<g transform="translate(0.000000,1516.800000) scale(0.080000,-0.080000)"
fill="#000000" stroke="none">
<path d="M19890 15585 l0 -85 135 0 c83 0 135 -4 135 -10 0 -6 -52 -10 -135
-10 l-135 0 0 -105 0 -105 155 0 c116 0 155 -3 157 -12 1 -7 4 37 7 97 7 123
5 135 -16 135 -13 0 -15 11 -10 65 3 48 1 69 -9 80 -21 20 -104 35 -199 35
l-85 0 0 -85z"/>
<path d="M19890 14305 l0 -934 24 -35 c32 -47 95 -234 112 -332 8 -44 25 -112
39 -151 35 -101 45 -178 45 -355 0 -94 4 -158 10 -160 13 -4 14 -3760 1 -3878
-10 -88 -33 -165 -70 -239 -13 -24 -20 -45 -17 -48 6 -6 300 13 426 28 157 19
246 79 290 196 19 50 20 78 20 428 l0 375 -200 0 -200 0 0 650 0 650 200 0
201 0 -7 1143 -6 1142 -40 122 c-58 177 -146 322 -291 480 -120 131 -175 236
-183 352 -5 69 -52 1289 -55 1424 l-2 77 -148 0 -149 0 0 -935z"/>
<path d="M17250 11910 c-278 -38 -484 -230 -549 -510 -28 -122 -34 -215 -21
-330 22 -197 81 -330 200 -451 60 -61 92 -84 160 -117 100 -47 148 -60 261
-68 415 -31 712 244 736 682 21 393 -169 696 -488 778 -75 19 -218 27 -299 16z
m291 -168 c142 -50 248 -165 298 -322 43 -135 45 -344 5 -480 -53 -182 -189
-313 -362 -349 -75 -16 -198 -14 -267 4 -250 66 -386 292 -372 619 12 301 154
493 402 546 65 15 233 4 296 -18z"/>
<path d="M25072 11910 c-136 -19 -279 -88 -335 -162 -53 -68 -71 -126 -71
-218 0 -106 23 -159 99 -229 60 -54 152 -92 435 -177 242 -73 322 -114 365
-188 88 -150 0 -292 -212 -342 -95 -23 -266 -15 -348 16 -109 41 -190 149
-211 280 l-7 40 -82 0 -82 0 8 -59 c17 -124 59 -213 138 -291 103 -104 224
-143 436 -144 220 0 355 45 455 150 64 68 90 126 97 218 14 177 -79 303 -282
381 -49 19 -177 62 -284 95 -208 65 -260 87 -304 129 -42 38 -57 74 -57 134 0
146 123 227 344 227 143 0 256 -42 310 -113 34 -46 63 -107 71 -150 l7 -37 85
0 84 0 -7 38 c-38 211 -150 336 -346 386 -75 19 -226 27 -306 16z"/>
<path d="M9894 11873 c3 -10 91 -317 196 -683 105 -366 195 -680 201 -698 l11
-33 91 3 91 3 160 587 c89 324 163 588 167 588 3 0 77 -264 165 -587 l160
-588 91 -3 91 -3 11 33 c6 18 96 332 201 698 105 366 193 673 196 683 5 15 -4
17 -85 17 -49 0 -92 -3 -94 -7 -3 -5 -74 -271 -158 -593 -84 -322 -155 -588
-159 -592 -3 -5 -77 256 -164 580 -88 323 -161 593 -164 600 -3 8 -31 12 -92
12 l-87 0 -30 -107 c-16 -60 -90 -330 -163 -600 -74 -271 -137 -490 -140 -485
-4 4 -75 270 -159 592 -84 322 -155 588 -158 593 -2 4 -45 7 -94 7 -81 0 -90
-2 -85 -17z"/>
<path d="M12100 11175 l0 -715 80 0 80 0 0 715 0 715 -80 0 -80 0 0 -715z"/>
<path d="M12750 11175 l0 -715 85 0 85 0 2 586 3 586 405 -586 405 -586 83 0
82 0 0 715 0 715 -80 0 -80 0 -2 -582 -3 -583 -405 583 -404 582 -88 0 -88 0
0 -715z"/>
<path d="M14390 11175 l0 -715 525 0 525 0 0 70 0 70 -440 0 -440 0 0 265 0
265 400 0 400 0 0 70 0 70 -400 0 -400 0 0 240 0 240 425 0 425 0 0 70 0 70
-510 0 -510 0 0 -715z"/>
<path d="M18460 11175 l0 -715 85 0 85 0 0 330 0 330 375 0 375 0 0 75 0 75
-375 0 -375 0 0 240 0 240 395 0 395 0 0 70 0 70 -480 0 -480 0 0 -715z"/>
<path d="M21942 11813 c-17 -43 -132 -337 -257 -653 -125 -316 -237 -603 -250
-637 l-24 -63 88 0 87 0 76 198 75 197 329 2 329 3 75 -200 75 -200 87 0 c49
0 88 3 88 8 -1 4 -126 324 -278 712 l-278 705 -96 3 -96 3 -30 -78z m267 -463
c71 -189 128 -346 127 -347 -2 -2 -124 -2 -273 -1 l-270 3 135 353 c75 194
139 349 143 345 4 -5 66 -163 138 -353z"/>
<path d="M23060 11175 l0 -715 85 0 85 0 2 586 3 586 405 -586 405 -586 83 0
82 0 0 715 0 715 -80 0 -80 0 -2 -582 -3 -583 -405 583 -404 582 -88 0 -88 0
0 -715z"/>
<path d="M26034 11873 c3 -10 91 -317 196 -683 105 -366 195 -680 201 -698
l11 -33 91 3 91 3 160 587 c89 324 163 588 167 588 3 0 77 -264 165 -587 l160
-588 91 -3 91 -3 11 33 c6 18 96 332 201 698 105 366 193 673 196 683 5 15 -4
17 -85 17 -49 0 -92 -3 -94 -7 -3 -5 -74 -271 -158 -593 -84 -322 -155 -588
-159 -592 -3 -5 -77 256 -164 580 -88 323 -161 593 -164 600 -3 8 -31 12 -92
12 l-87 0 -30 -107 c-16 -60 -90 -330 -163 -600 -74 -271 -137 -490 -140 -485
-4 4 -75 270 -159 592 -84 322 -155 588 -158 593 -2 4 -45 7 -94 7 -81 0 -90
-2 -85 -17z"/>
<path d="M28220 11175 l0 -715 525 0 525 0 0 70 0 70 -440 0 -440 0 0 265 0
265 400 0 400 0 0 70 0 70 -400 0 -400 0 0 240 0 240 425 0 425 0 0 70 0 70
-510 0 -510 0 0 -715z"/>
<path d="M29700 11176 l0 -716 85 0 85 0 0 305 0 305 258 0 c287 0 332 -7 390
-60 53 -48 69 -99 87 -275 11 -108 24 -178 38 -215 l22 -55 92 -3 93 -3 -20
33 c-36 61 -49 118 -65 271 -9 84 -22 175 -30 203 -20 70 -80 136 -150 165
l-56 23 53 19 c73 28 148 105 177 182 20 51 22 75 19 160 -5 115 -23 168 -84
235 -49 54 -95 83 -176 112 -60 21 -79 22 -440 26 l-378 4 0 -716z m755 549
c114 -39 160 -109 160 -240 0 -70 -4 -87 -30 -134 -17 -31 -46 -64 -66 -78
-72 -47 -113 -53 -391 -53 l-258 0 0 266 0 266 268 -4 c219 -4 276 -8 317 -23z"/>
<path d="M20400 9850 l0 -630 185 0 185 0 0 630 0 630 -185 0 -185 0 0 -630z"/>
<path d="M22748 7583 l-56 -4 63 -189 64 -190 -58 0 c-32 0 -60 -2 -63 -5 -3
-3 25 -99 62 -213 l68 -207 116 -3 c64 -1 116 -1 116 0 0 2 -29 93 -64 203
l-64 200 65 3 c45 2 63 7 60 15 -2 7 -33 99 -68 205 l-64 192 -60 -2 c-33 -1
-85 -3 -117 -5z"/>
<path d="M23100 7520 l0 -70 200 0 200 0 0 -145 0 -145 -165 0 -165 0 0 -715
0 -715 605 0 605 0 0 715 0 715 -170 0 -170 0 0 145 0 145 174 0 173 0 27 61
c14 33 26 65 26 70 0 5 -262 9 -670 9 l-670 0 0 -70z m710 -215 l0 -145 -40 0
-40 0 0 145 0 145 40 0 40 0 0 -145z m-310 -585 l0 -300 -50 0 -50 0 0 300 0
300 50 0 50 0 0 -300z m310 -70 l0 -371 142 3 141 3 28 65 28 65 1 -272 0
-273 -375 0 -375 0 0 268 0 267 30 -62 29 -63 136 0 135 0 0 370 0 370 40 0
40 0 0 -370z m340 70 l0 -300 -55 0 -55 0 0 300 0 300 55 0 55 0 0 -300z"/>
<path d="M23420 6070 l0 -70 328 0 329 0 27 63 c14 34 26 65 26 70 0 4 -160 7
-355 7 l-355 0 0 -70z"/>
<path d="M19060 7525 l0 -55 -335 0 -335 0 0 -120 0 -120 115 0 115 0 0 50 0
50 514 0 514 0 18 48 c29 78 34 71 34 -41 l0 -107 110 0 110 0 0 120 0 120
-320 0 -320 0 0 55 0 55 -110 0 -110 0 0 -55z"/>
<path d="M21110 7576 c0 -3 22 -68 49 -145 l49 -141 -304 0 -304 0 0 -70 0
-70 581 -2 580 -3 -533 -637 -533 -637 -82 0 -83 -1 0 -70 0 -70 197 2 198 3
592 704 593 704 0 73 0 74 -326 2 -327 3 -50 143 -50 142 -123 0 c-68 0 -124
-2 -124 -4z"/>
<path d="M16286 7313 c-53 -137 -96 -251 -96 -255 0 -5 56 -8 124 -8 l123 0
49 128 c47 121 51 127 79 130 30 2 31 1 81 -125 l51 -128 245 -3 246 -2 37 97
c66 172 61 163 93 163 27 0 31 -5 79 -127 l51 -128 121 -3 c67 -1 121 1 121 6
0 5 -22 63 -49 128 l-49 119 62 3 61 3 18 59 c9 33 17 64 17 70 0 6 -68 10
-200 10 -110 0 -200 2 -200 5 0 2 9 27 20 55 l20 50 -129 0 -128 0 -93 -245
c-52 -135 -97 -242 -101 -238 -4 5 -27 58 -52 118 l-45 110 58 3 57 3 18 57
c9 31 20 63 22 70 4 9 -39 12 -196 12 -111 0 -201 4 -201 9 0 5 7 28 15 51 8
23 15 44 15 46 0 2 -56 4 -123 4 l-124 0 -97 -247z"/>
<path d="M18757 7173 l-14 -48 -177 -3 -176 -2 0 -70 0 -69 154 -3 154 -3 -35
-113 c-20 -62 -33 -115 -31 -117 3 -3 52 -16 109 -28 l104 -24 -95 -22 c-52
-11 -146 -33 -207 -47 l-113 -26 0 -74 c0 -72 1 -74 23 -69 12 3 175 40 362
83 l340 78 360 -83 c198 -45 363 -82 368 -83 4 0 7 34 7 75 0 41 -3 75 -7 75
-16 1 -395 89 -399 93 -3 2 36 12 86 22 l90 19 0 123 0 122 117 3 117 3 23 60
c13 32 23 63 23 67 0 4 -219 8 -486 8 -417 0 -485 2 -481 14 3 8 9 31 13 50
l6 36 -111 0 -110 0 -14 -47z m683 -268 c0 -41 -2 -75 -5 -75 -3 0 -67 -14
-142 -30 l-137 -31 -132 31 c-73 16 -135 30 -137 30 -5 0 23 99 37 137 4 10
59 13 261 13 l255 0 0 -75z"/>
<path d="M16277 6705 l-117 -235 133 0 132 0 115 230 c63 126 117 226 121 222
4 -4 16 -32 27 -62 l20 -55 321 -3 321 -2 45 -90 c25 -49 45 -92 45 -95 0 -3
-209 -5 -465 -5 l-465 0 0 -70 0 -70 448 0 448 0 19 56 c10 30 22 57 25 59 4
2 20 -23 35 -55 l29 -60 129 0 c73 0 127 4 125 9 -1 5 -52 111 -113 235 l-110
225 -575 1 -575 0 -118 -235z"/>
<path d="M22841 6578 c-6 -29 -40 -222 -76 -428 -36 -206 -67 -385 -70 -397
-5 -23 -5 -23 112 -23 l118 0 74 423 c40 232 75 434 78 450 l6 27 -116 0 -116
0 -10 -52z"/>
<path d="M19060 6410 l0 -60 -315 0 -315 0 0 -70 0 -70 100 0 c55 0 100 -2
100 -4 0 -2 -47 -105 -105 -230 -58 -124 -105 -229 -105 -231 0 -3 52 -4 117
-3 l116 3 106 230 107 230 97 3 97 3 0 -241 0 -240 110 0 110 0 0 240 0 240
281 2 281 3 19 50 c11 28 22 58 25 68 5 16 -14 17 -300 17 l-306 0 0 60 0 60
-110 0 -110 0 0 -60z"/>
<path d="M16230 6050 l0 -300 740 0 740 0 0 300 0 300 -740 0 -740 0 0 -300z
m1250 60 l0 -220 -510 0 -510 0 0 160 0 160 487 2 486 3 20 58 c10 31 21 57
23 57 2 0 4 -99 4 -220z"/>
<path d="M19532 6063 c22 -49 65 -140 94 -203 l53 -115 120 -3 120 -3 -81 173
c-44 95 -86 188 -94 206 l-14 32 -119 0 -120 0 41 -87z"/>
<path d="M21080 5865 c0 -2 14 -34 32 -70 l32 -65 507 0 507 0 26 65 c14 36
26 67 26 70 0 3 -254 5 -565 5 -311 0 -565 -2 -565 -5z"/>
<path d="M16116 4348 c-35 -139 -85 -273 -132 -353 -33 -55 -34 -60 -18 -72
16 -12 22 -8 50 39 18 29 50 94 70 145 l38 93 83 0 83 0 0 -190 0 -190 -172
-2 c-171 -3 -173 -3 -176 -25 l-3 -23 176 0 176 0 -6 -47 c-32 -234 -135 -416
-315 -555 -33 -26 -34 -28 -18 -44 16 -16 20 -15 64 21 115 95 202 210 252
334 l29 72 86 -93 c47 -51 109 -121 138 -155 28 -35 55 -63 59 -63 4 0 13 7
20 15 11 13 8 21 -16 48 -17 18 -85 92 -153 164 l-123 132 11 51 c6 28 11 67
11 85 l0 35 155 0 155 0 0 25 0 25 -150 0 -150 0 0 190 0 190 131 0 c130 0
130 0 127 23 -3 22 -3 22 -231 25 -176 2 -228 5 -224 15 2 6 12 47 22 90 13
54 23 77 34 77 22 0 1 17 -29 25 -24 6 -26 3 -54 -107z"/>
<path d="M18188 4449 c-16 -9 -14 -15 18 -56 19 -25 46 -68 60 -95 21 -42 27
-47 44 -38 25 13 15 41 -46 126 -52 73 -54 75 -76 63z"/>
<path d="M18710 4453 c0 -6 -25 -49 -55 -98 -30 -48 -55 -91 -55 -96 0 -5 9
-9 20 -9 15 0 37 25 78 90 31 49 64 90 72 90 21 0 0 17 -32 25 -16 4 -28 3
-28 -2z"/>
<path d="M19560 4334 c-59 -167 -180 -415 -262 -535 -59 -88 -64 -97 -47 -107
15 -10 23 -5 52 36 29 40 107 168 145 237 9 15 11 -99 12 -433 l0 -453 23 3
22 3 3 478 c2 371 5 477 15 477 7 1 5 6 -6 14 -17 13 -16 20 27 118 24 57 56
139 71 181 19 52 33 77 43 77 23 0 3 17 -28 25 -24 5 -27 1 -70 -121z"/>
<path d="M19896 4447 c-2 -6 -18 -66 -36 -132 -41 -152 -98 -298 -156 -399
-41 -70 -44 -80 -31 -94 14 -13 19 -10 47 34 30 48 64 115 101 200 l18 44 146
0 145 0 0 -485 0 -485 -95 0 c-52 0 -95 -4 -95 -8 0 -5 6 -16 13 -26 12 -16
25 -18 107 -14 76 3 95 8 106 23 11 15 14 109 14 507 l0 488 190 0 190 0 -5
-22 c-19 -88 -45 -214 -45 -225 0 -7 8 -13 18 -13 16 0 24 23 51 140 18 77 30
147 27 155 -5 13 -57 15 -377 15 -349 0 -371 1 -366 18 31 100 67 227 67 238
0 7 8 17 18 23 19 11 21 9 -33 26 -9 2 -17 -1 -19 -8z"/>
<path d="M22716 4348 c-35 -139 -85 -273 -132 -353 -33 -55 -34 -60 -18 -72
16 -12 22 -8 50 39 18 29 50 94 70 145 l38 93 83 0 83 0 0 -190 0 -190 -172
-2 c-171 -3 -173 -3 -176 -25 l-3 -23 176 0 176 0 -6 -47 c-32 -234 -135 -416
-315 -555 -33 -26 -34 -28 -18 -44 16 -16 20 -15 64 21 115 95 202 210 252
334 l29 72 86 -93 c47 -51 109 -121 138 -155 28 -35 55 -63 59 -63 4 0 13 7
20 15 11 13 8 21 -16 48 -17 18 -85 92 -153 164 l-123 132 11 51 c6 28 11 67
11 85 l0 35 155 0 155 0 0 25 0 25 -150 0 -150 0 0 190 0 190 131 0 c130 0
130 0 127 23 -3 22 -3 22 -231 25 -176 2 -228 5 -224 15 2 6 12 47 22 90 13
54 23 77 34 77 22 0 1 17 -29 25 -24 6 -26 3 -54 -107z"/>
<path d="M24788 4449 c-16 -9 -14 -15 18 -56 19 -25 46 -68 60 -95 21 -42 27
-47 44 -38 25 13 15 41 -46 126 -52 73 -54 75 -76 63z"/>
<path d="M25310 4453 c0 -6 -25 -49 -55 -98 -30 -48 -55 -91 -55 -96 0 -5 9
-9 20 -9 15 0 37 25 78 90 31 49 64 90 72 90 21 0 0 17 -32 25 -16 4 -28 3
-28 -2z"/>
<path d="M26146 4448 c-34 -112 -58 -183 -70 -212 l-15 -36 -80 0 -81 0 0
-506 0 -505 23 3 c20 3 22 9 25 71 l3 67 214 0 215 0 0 435 0 435 -136 0
c-126 0 -136 1 -129 18 4 9 23 60 42 112 19 52 40 98 46 102 7 4 1 11 -16 17
-35 14 -37 14 -41 -1z m184 -473 l0 -175 -190 0 -190 0 0 175 0 175 190 0 190
0 0 -175z m0 -410 l0 -185 -190 0 -190 0 0 185 0 185 190 0 190 0 0 -185z"/>
<path d="M26641 4345 c-44 -153 -126 -353 -183 -447 -41 -68 -45 -78 -31 -90
13 -10 19 -8 39 17 26 32 123 226 145 288 l13 37 254 0 254 0 -6 -152 c-24
-551 -42 -743 -79 -818 l-22 -45 -156 -3 c-147 -2 -157 -4 -152 -21 6 -23 57
-31 190 -31 117 0 154 14 182 69 40 78 65 325 76 761 3 118 8 232 11 253 l4
37 -265 0 c-146 0 -265 3 -265 8 0 4 14 55 32 115 22 74 37 107 47 107 22 0 1
17 -29 25 -25 6 -26 3 -59 -110z"/>
<path d="M15104 4288 c4 -84 11 -186 15 -225 l7 -73 -203 0 -203 0 0 148 c0
102 4 152 12 160 9 9 9 12 -2 13 -13 0 148 48 223 65 32 8 34 15 9 38 -17 15
-22 15 -54 2 -51 -22 -245 -71 -393 -101 -71 -14 -140 -28 -152 -31 -24 -5
-27 -11 -15 -31 6 -9 44 -5 157 17 83 17 153 30 158 30 4 0 7 -70 7 -155 l0
-155 -180 0 -180 0 0 -25 0 -25 180 0 180 0 0 -164 0 -164 -172 -41 c-95 -23
-179 -41 -185 -41 -15 0 -17 -28 -4 -48 6 -11 13 -11 27 -3 11 6 90 28 177 50
l157 39 -2 -222 -3 -221 -127 -3 -127 -3 11 -24 c10 -23 17 -25 72 -24 115 0
198 14 212 34 11 15 14 69 14 246 0 208 1 228 18 233 17 5 168 45 250 66 31 8
42 16 42 30 0 11 -2 20 -6 20 -3 0 -68 -16 -144 -35 -76 -19 -144 -35 -149
-35 -7 0 -11 53 -11 155 l0 155 205 0 204 0 5 -32 c3 -18 13 -78 22 -133 8
-55 27 -147 41 -203 l25 -104 -43 -45 c-56 -57 -179 -150 -270 -204 -63 -38
-69 -44 -55 -58 14 -14 20 -13 58 6 55 26 185 120 264 189 64 57 74 62 74 41
0 -21 75 -168 109 -215 61 -83 169 -129 229 -98 36 19 58 62 71 146 17 105 14
167 -8 180 -18 9 -20 5 -26 -68 -14 -161 -35 -212 -87 -212 -79 0 -163 90
-227 245 l-32 76 66 77 c37 42 93 118 125 167 32 50 68 101 80 114 24 26 24
27 -11 36 -23 6 -29 -1 -77 -79 -49 -80 -154 -218 -185 -245 -12 -9 -18 2 -36
73 -17 70 -61 312 -61 339 0 4 106 7 235 7 l235 0 0 25 0 25 -239 0 -238 0 -6
75 c-16 186 -20 355 -9 355 7 0 12 5 12 10 0 6 -16 10 -36 10 l-37 0 7 -152z"/>
<path d="M15323 4409 c-9 -9 16 -39 96 -118 60 -58 118 -119 129 -136 20 -28
22 -29 38 -13 16 16 16 18 -1 45 -28 42 -132 148 -190 193 -58 45 -57 44 -72
29z"/>
<path d="M17641 4406 c-9 -11 1 -23 55 -61 37 -26 100 -82 141 -123 68 -68 76
-74 90 -59 14 14 11 21 -43 77 -54 57 -207 180 -224 180 -4 0 -13 -6 -19 -14z"/>
<path d="M24241 4406 c-9 -11 1 -23 55 -61 37 -26 100 -82 141 -123 68 -68 76
-74 90 -59 14 14 11 21 -43 77 -54 57 -207 180 -224 180 -4 0 -13 -6 -19 -14z"/>
<path d="M20930 4325 l0 -25 370 0 c204 0 370 -3 370 -6 0 -16 -108 -182 -169
-261 -143 -184 -311 -342 -503 -470 -85 -57 -96 -68 -87 -84 12 -23 20 -20
134 60 158 111 323 263 454 421 l51 61 0 -470 0 -471 25 0 25 0 0 489 c0 347
3 492 11 497 8 5 8 8 0 14 -13 8 89 179 116 194 13 7 13 10 2 17 -8 5 94 9
244 9 l257 0 0 25 0 25 -650 0 -650 0 0 -25z"/>
<path d="M16720 3724 l0 -605 23 3 c20 3 22 9 25 66 l3 62 219 0 220 0 0 -61
c0 -57 1 -60 23 -57 l22 3 0 595 0 595 -267 3 -268 2 0 -606z m490 66 l0 -490
-220 0 -220 0 0 490 0 490 220 0 220 0 0 -490z"/>
<path d="M23320 3724 l0 -605 23 3 c20 3 22 9 25 66 l3 62 219 0 220 0 0 -61
c0 -57 1 -60 23 -57 l22 3 0 595 0 595 -267 3 -268 2 0 -606z m490 66 l0 -490
-220 0 -220 0 0 490 0 490 220 0 220 0 0 -490z"/>
<path d="M17990 4215 l0 -25 224 0 224 0 -14 -67 c-8 -38 -16 -78 -19 -90 -5
-23 -8 -23 -145 -23 l-140 0 0 -365 0 -365 25 0 c21 0 25 5 25 30 l0 30 300 0
300 0 0 -30 c0 -25 4 -30 25 -30 l25 0 0 365 0 365 -186 0 -187 0 7 40 c3 22
11 63 17 90 l11 50 236 2 c229 3 237 4 237 23 0 20 -8 20 -482 23 l-483 2 0
-25z m780 -325 l0 -80 -300 0 -300 0 0 80 0 80 300 0 300 0 0 -80z m0 -210 l0
-80 -300 0 -300 0 0 80 0 80 300 0 300 0 0 -80z m0 -210 l0 -80 -300 0 -300 0
0 80 0 80 300 0 300 0 0 -80z"/>
<path d="M24590 4215 l0 -25 224 0 224 0 -14 -67 c-8 -38 -16 -78 -19 -90 -5
-23 -8 -23 -145 -23 l-140 0 0 -365 0 -365 25 0 c21 0 25 5 25 30 l0 30 300 0
300 0 0 -30 c0 -25 4 -30 25 -30 l25 0 0 365 0 365 -186 0 -187 0 7 40 c3 22
11 63 17 90 l11 50 236 2 c229 3 237 4 237 23 0 20 -8 20 -482 23 l-483 2 0
-25z m780 -325 l0 -80 -300 0 -300 0 0 80 0 80 300 0 300 0 0 -80z m0 -210 l0
-80 -300 0 -300 0 0 80 0 80 300 0 300 0 0 -80z m0 -210 l0 -80 -300 0 -300 0
0 80 0 80 300 0 300 0 0 -80z"/>
<path d="M21701 3896 c-9 -11 12 -30 116 -98 140 -92 304 -217 370 -281 24
-22 44 -39 46 -36 1 2 8 11 15 21 11 14 2 25 -70 86 -111 93 -439 322 -461
322 -3 0 -10 -6 -16 -14z"/>
<path d="M26650 3870 c-11 -7 -12 -13 -5 -23 74 -105 145 -219 178 -289 23
-48 45 -87 48 -88 3 0 13 6 22 13 15 11 13 20 -28 99 -49 96 -182 298 -196
298 -2 0 -11 -5 -19 -10z"/>
<path d="M17592 3828 c3 -22 7 -23 126 -26 l122 -3 -2 -231 -3 -232 -90 -76
c-50 -41 -105 -86 -123 -100 -31 -24 -32 -26 -17 -47 l16 -23 32 29 c42 37
178 152 199 169 14 11 23 7 64 -33 60 -57 142 -99 242 -122 67 -15 126 -18
436 -18 357 0 359 0 367 21 l7 22 -356 -2 c-305 -1 -368 2 -431 16 -104 24
-188 67 -244 122 l-47 48 0 254 0 254 -151 0 c-150 0 -150 0 -147 -22z"/>
<path d="M24192 3828 c3 -22 7 -23 126 -26 l122 -3 -2 -231 -3 -232 -90 -76
c-50 -41 -105 -86 -123 -100 -31 -24 -32 -26 -17 -47 l16 -23 32 29 c42 37
178 152 199 169 14 11 23 7 64 -33 60 -57 142 -99 242 -122 67 -15 126 -18
436 -18 357 0 359 0 367 21 l7 22 -356 -2 c-305 -1 -368 2 -431 16 -104 24
-188 67 -244 122 l-47 48 0 254 0 254 -151 0 c-150 0 -150 0 -147 -22z"/>
<path d="M20362 3832 c-10 -7 -2 -28 33 -90 54 -96 137 -287 162 -372 18 -60
26 -67 51 -51 11 6 8 23 -12 84 -48 143 -186 426 -212 434 -5 1 -15 -1 -22 -5z"/>
<path d="M19885 3818 c-2 -7 -18 -56 -35 -108 -37 -114 -104 -258 -155 -335
-29 -43 -35 -59 -26 -68 18 -18 39 1 89 83 47 76 131 272 152 351 6 24 19 50
27 56 19 15 17 18 -20 27 -18 4 -29 2 -32 -6z"/>
<path d="M23799 2623 c-10 -3 -22 -32 -36 -89 -27 -110 -8 -107 30 5 16 46 27
84 25 85 -2 1 -10 1 -19 -1z"/>
<path d="M15868 2606 c-117 -43 -170 -133 -171 -286 0 -105 25 -171 88 -229
50 -46 110 -66 177 -58 141 17 222 128 221 305 0 74 -4 90 -34 150 -27 52 -44
73 -81 95 -56 35 -143 45 -200 23z m186 -43 c112 -79 140 -289 55 -417 -35
-52 -113 -96 -168 -96 -128 1 -230 141 -219 299 8 113 67 207 150 238 52 20
135 9 182 -24z"/>
<path d="M20598 2606 c-117 -43 -170 -133 -171 -286 0 -105 25 -171 88 -229
50 -46 110 -66 177 -58 141 17 222 128 221 305 0 74 -4 90 -34 150 -27 52 -44
73 -81 95 -56 35 -143 45 -200 23z m186 -43 c112 -79 140 -289 55 -417 -35
-52 -113 -96 -168 -96 -128 1 -230 141 -219 299 8 113 67 207 150 238 52 20
135 9 182 -24z"/>
<path d="M22688 2606 c-117 -43 -170 -133 -171 -286 0 -105 25 -171 88 -229
50 -46 110 -66 177 -58 141 17 222 128 221 305 0 74 -4 90 -34 150 -27 52 -44
73 -81 95 -56 35 -143 45 -200 23z m186 -43 c112 -79 140 -289 55 -417 -35
-52 -113 -96 -168 -96 -128 1 -230 141 -219 299 8 113 67 207 150 238 52 20
135 9 182 -24z"/>
<path d="M26288 2606 c-117 -43 -170 -133 -171 -286 0 -105 25 -171 88 -229
50 -46 110 -66 177 -58 141 17 222 128 221 305 0 74 -4 90 -34 150 -27 52 -44
73 -81 95 -56 35 -143 45 -200 23z m186 -43 c112 -79 140 -289 55 -417 -35
-52 -113 -96 -168 -96 -128 1 -230 141 -219 299 8 113 67 207 150 238 52 20
135 9 182 -24z"/>
<path d="M14160 2325 c0 -247 2 -285 15 -285 13 0 15 38 15 285 0 247 -2 285
-15 285 -13 0 -15 -38 -15 -285z"/>
<path d="M14650 2325 c0 -247 2 -285 15 -285 13 0 15 20 15 123 1 118 1 123
28 155 l27 33 115 -155 c62 -86 120 -156 127 -156 7 0 13 2 13 5 0 3 -53 76
-119 163 l-118 158 59 64 c130 144 160 180 145 180 -8 0 -73 -65 -143 -144
l-129 -145 -3 145 c-2 119 -5 144 -17 144 -13 0 -15 -41 -15 -285z"/>
<path d="M15120 2325 c0 -254 2 -285 16 -285 14 0 16 27 12 260 -1 143 -2 260
-1 260 1 0 16 -24 33 -52 109 -178 305 -468 316 -468 12 0 14 52 14 285 0 257
-2 285 -16 285 -15 0 -16 -25 -12 -264 l5 -264 -44 71 c-102 167 -299 457
-310 457 -10 0 -13 -64 -13 -285z"/>
<path d="M16303 2597 c6 -15 147 -546 147 -553 0 -2 6 -4 13 -4 12 0 64 158
155 470 l18 65 7 -43 c4 -24 30 -125 56 -225 27 -100 55 -201 61 -224 6 -24
17 -43 24 -43 8 0 42 98 94 269 45 148 85 277 88 286 5 13 2 16 -11 14 -14 -3
-31 -48 -75 -194 -31 -104 -65 -221 -75 -260 -18 -65 -20 -68 -27 -40 -4 17
-35 133 -68 259 -33 125 -60 230 -60 232 0 2 -7 4 -15 4 -14 0 -29 -42 -109
-315 -19 -66 -40 -140 -46 -165 l-12 -45 -69 260 c-38 143 -69 261 -69 263 0
1 -7 2 -16 2 -9 0 -14 -6 -11 -13z"/>
<path d="M17303 2597 c6 -15 147 -546 147 -553 0 -2 6 -4 13 -4 12 0 64 158
155 470 l18 65 7 -43 c4 -24 30 -125 56 -225 27 -100 55 -201 61 -224 6 -24
17 -43 24 -43 8 0 42 98 94 269 45 148 85 277 88 286 5 13 2 16 -11 14 -14 -3
-31 -48 -75 -194 -31 -104 -65 -221 -75 -260 -18 -65 -20 -68 -27 -40 -4 17
-35 133 -68 259 -33 125 -60 230 -60 232 0 2 -7 4 -15 4 -14 0 -29 -42 -109
-315 -19 -66 -40 -140 -46 -165 l-12 -45 -69 260 c-38 143 -69 261 -69 263 0
1 -7 2 -16 2 -9 0 -14 -6 -11 -13z"/>
<path d="M18120 2325 c0 -247 2 -285 15 -285 13 0 15 23 15 145 l0 145 160 0
160 0 0 -145 c0 -122 2 -145 15 -145 13 0 15 38 15 285 0 247 -2 285 -15 285
-13 0 -15 -21 -15 -130 l0 -130 -160 0 -160 0 0 130 c0 109 -2 130 -15 130
-13 0 -15 -38 -15 -285z"/>
<path d="M18778 2325 c-68 -185 -101 -285 -92 -285 12 0 25 30 70 158 l19 52
116 0 117 0 37 -105 c22 -62 43 -105 51 -105 10 0 2 30 -25 108 -120 332 -168
456 -177 459 -6 2 -58 -125 -116 -282z m190 28 l31 -83 -108 0 -108 0 55 150
56 150 22 -68 c12 -37 35 -104 52 -149z"/>
<path d="M19190 2600 c0 -6 38 -10 95 -10 l95 0 0 -275 c0 -238 2 -275 15
-275 13 0 15 37 15 275 l0 275 90 0 c53 0 90 4 90 10 0 6 -73 10 -200 10 -127
0 -200 -4 -200 -10z"/>
<path d="M20011 2453 l89 -158 0 -127 c0 -107 2 -128 15 -128 13 0 15 20 15
124 l0 125 95 157 c52 87 92 160 90 162 -13 14 -39 -20 -110 -146 -44 -78 -83
-142 -86 -142 -3 0 -41 65 -85 145 -52 96 -85 145 -96 145 -12 0 7 -40 73
-157z"/>
<path d="M21092 2388 c3 -216 4 -224 28 -268 45 -81 147 -112 235 -71 95 43
108 84 113 349 4 186 2 212 -11 212 -14 0 -16 -30 -19 -217 -3 -205 -4 -221
-26 -261 -41 -78 -152 -105 -221 -55 -14 11 -36 39 -48 63 -22 42 -23 56 -23
257 0 188 -2 213 -16 213 -14 0 -15 -25 -12 -222z"/>
<path d="M21973 2603 l-33 -4 0 -281 0 -281 113 5 c170 8 250 51 298 162 30
69 31 192 2 256 -44 99 -120 142 -258 146 -49 1 -105 0 -122 -3z m208 -29
c105 -31 158 -97 167 -210 10 -129 -36 -222 -134 -270 -48 -23 -74 -29 -151
-32 l-93 -4 0 260 0 261 23 4 c52 10 137 6 188 -9z"/>
<path d="M23180 2325 c0 -254 2 -285 16 -285 14 0 16 27 12 260 -1 143 -2 260
-1 260 1 0 16 -24 33 -52 109 -178 305 -468 316 -468 12 0 14 52 14 285 0 257
-2 285 -16 285 -15 0 -16 -25 -12 -264 l5 -264 -44 71 c-102 167 -299 457
-310 457 -10 0 -13 -64 -13 -285z"/>
<path d="M24290 2600 c0 -6 38 -10 95 -10 l95 0 0 -275 c0 -238 2 -275 15
-275 13 0 15 37 15 275 l0 275 90 0 c53 0 90 4 90 10 0 6 -73 10 -200 10 -127
0 -200 -4 -200 -10z"/>
<path d="M25070 2325 c0 -247 2 -285 15 -285 13 0 15 20 15 123 1 118 1 123
28 155 l27 33 115 -155 c62 -86 120 -156 127 -156 7 0 13 2 13 5 0 3 -53 76
-119 163 l-118 158 59 64 c130 144 160 180 145 180 -8 0 -73 -65 -143 -144
l-129 -145 -3 145 c-2 119 -5 144 -17 144 -13 0 -15 -41 -15 -285z"/>
<path d="M25550 2325 c0 -254 2 -285 16 -285 14 0 16 27 12 260 -1 143 -2 260
-1 260 1 0 16 -24 33 -52 109 -178 305 -468 316 -468 12 0 14 52 14 285 0 257
-2 285 -16 285 -15 0 -16 -25 -12 -264 l5 -264 -44 71 c-102 167 -299 457
-310 457 -10 0 -13 -64 -13 -285z"/>
<path d="M26733 2597 c6 -15 147 -546 147 -553 0 -2 6 -4 13 -4 12 0 64 158
155 470 l18 65 7 -43 c4 -24 30 -125 56 -225 27 -100 55 -201 61 -224 6 -24
17 -43 24 -43 8 0 42 98 94 269 45 148 85 277 88 286 5 13 2 16 -11 14 -14 -3
-31 -48 -75 -194 -31 -104 -65 -221 -75 -260 -18 -65 -20 -68 -27 -40 -4 17
-35 133 -68 259 -33 125 -60 230 -60 232 0 2 -7 4 -15 4 -14 0 -29 -42 -109
-315 -19 -66 -40 -140 -46 -165 l-12 -45 -69 260 c-38 143 -69 261 -69 263 0
1 -7 2 -16 2 -9 0 -14 -6 -11 -13z"/>
</g>
</svg>
